<svg width="640" height="420" viewBox="0 0 640 420" fill="none" xmlns="http://www.w3.org/2000/svg">
  <!-- Background -->
  <rect width="640" height="420" fill="url(#gradient-bg)" rx="16"/>
  
  <!-- Gradient definitions -->
  <defs>
    <linearGradient id="gradient-bg" x1="0%" y1="0%" x2="100%" y2="100%">
      <stop offset="0%" style="stop-color:#f0fdfa;stop-opacity:1" />
      <stop offset="50%" style="stop-color:#e0f2fe;stop-opacity:1" />
      <stop offset="100%" style="stop-color:#f3e8ff;stop-opacity:1" />
    </linearGradient>
    
    <linearGradient id="gradient-primary" x1="0%" y1="0%" x2="100%" y2="100%">
      <stop offset="0%" style="stop-color:#0d9488;stop-opacity:1" />
      <stop offset="100%" style="stop-color:#059669;stop-opacity:1" />
    </linearGradient>
    
    <linearGradient id="gradient-secondary" x1="0%" y1="0%" x2="100%" y2="100%">
      <stop offset="0%" style="stop-color:#3b82f6;stop-opacity:1" />
      <stop offset="100%" style="stop-color:#8b5cf6;stop-opacity:1" />
    </linearGradient>
    
    <linearGradient id="gradient-accent" x1="0%" y1="0%" x2="100%" y2="100%">
      <stop offset="0%" style="stop-color:#f59e0b;stop-opacity:1" />
      <stop offset="100%" style="stop-color:#ef4444;stop-opacity:1" />
    </linearGradient>
  </defs>
  
  <!-- Floating background elements -->
  <circle cx="80" cy="80" r="40" fill="url(#gradient-primary)" opacity="0.1"/>
  <circle cx="560" cy="100" r="60" fill="url(#gradient-secondary)" opacity="0.1"/>
  <circle cx="120" cy="320" r="30" fill="url(#gradient-accent)" opacity="0.1"/>
  <circle cx="520" cy="350" r="50" fill="url(#gradient-primary)" opacity="0.1"/>
  
  <!-- Main learning dashboard mockup -->
  <rect x="50" y="50" width="540" height="320" fill="white" rx="12" stroke="#e5e7eb" stroke-width="1"/>
  
  <!-- Header bar -->
  <rect x="50" y="50" width="540" height="60" fill="url(#gradient-primary)" rx="12"/>
  <rect x="50" y="110" width="540" height="1" fill="#e5e7eb"/>
  
  <!-- Header content -->
  <circle cx="80" cy="80" r="12" fill="white" opacity="0.9"/>
  <rect x="100" y="70" width="80" height="8" fill="white" opacity="0.9" rx="4"/>
  <rect x="100" y="82" width="60" height="6" fill="white" opacity="0.7" rx="3"/>
  
  <!-- Navigation tabs -->
  <rect x="70" y="130" width="60" height="30" fill="url(#gradient-primary)" rx="6"/>
  <rect x="140" y="130" width="80" height="30" fill="#f3f4f6" rx="6"/>
  <rect x="230" y="130" width="70" height="30" fill="#f3f4f6" rx="6"/>
  <rect x="310" y="130" width="90" height="30" fill="#f3f4f6" rx="6"/>
  
  <!-- Course cards -->
  <rect x="70" y="180" width="150" height="120" fill="white" rx="8" stroke="#e5e7eb" stroke-width="1"/>
  <rect x="80" y="190" width="130" height="60" fill="url(#gradient-secondary)" rx="6"/>
  <rect x="80" y="260" width="100" height="8" fill="#374151" rx="4"/>
  <rect x="80" y="275" width="80" height="6" fill="#9ca3af" rx="3"/>
  <rect x="80" y="285" width="60" height="6" fill="#d1d5db" rx="3"/>
  
  <rect x="240" y="180" width="150" height="120" fill="white" rx="8" stroke="#e5e7eb" stroke-width="1"/>
  <rect x="250" y="190" width="130" height="60" fill="url(#gradient-accent)" rx="6"/>
  <rect x="250" y="260" width="110" height="8" fill="#374151" rx="4"/>
  <rect x="250" y="275" width="90" height="6" fill="#9ca3af" rx="3"/>
  <rect x="250" y="285" width="70" height="6" fill="#d1d5db" rx="3"/>
  
  <rect x="410" y="180" width="150" height="120" fill="white" rx="8" stroke="#e5e7eb" stroke-width="1"/>
  <rect x="420" y="190" width="130" height="60" fill="url(#gradient-primary)" rx="6"/>
  <rect x="420" y="260" width="90" height="8" fill="#374151" rx="4"/>
  <rect x="420" y="275" width="100" height="6" fill="#9ca3af" rx="3"/>
  <rect x="420" y="285" width="80" height="6" fill="#d1d5db" rx="3"/>
  
  <!-- Progress indicators -->
  <rect x="70" y="320" width="200" height="40" fill="#f9fafb" rx="8"/>
  <rect x="80" y="330" width="180" height="6" fill="#e5e7eb" rx="3"/>
  <rect x="80" y="330" width="120" height="6" fill="url(#gradient-primary)" rx="3"/>
  <rect x="80" y="340" width="60" height="4" fill="#6b7280" rx="2"/>
  
  <!-- Stats section -->
  <rect x="290" y="320" width="270" height="40" fill="#f9fafb" rx="8"/>
  <circle cx="310" cy="340" r="8" fill="url(#gradient-primary)"/>
  <rect x="325" y="335" width="40" height="6" fill="#374151" rx="3"/>
  <rect x="325" y="345" width="30" height="4" fill="#9ca3af" rx="2"/>
  
  <circle cx="400" cy="340" r="8" fill="url(#gradient-secondary)"/>
  <rect x="415" y="335" width="50" height="6" fill="#374151" rx="3"/>
  <rect x="415" y="345" width="35" height="4" fill="#9ca3af" rx="2"/>
  
  <circle cx="490" cy="340" r="8" fill="url(#gradient-accent)"/>
  <rect x="505" y="335" width="45" height="6" fill="#374151" rx="3"/>
  <rect x="505" y="345" width="40" height="4" fill="#9ca3af" rx="2"/>
  
  <!-- Floating elements -->
  <circle cx="580" cy="200" r="20" fill="url(#gradient-primary)" opacity="0.8"/>
  <circle cx="60" cy="250" r="15" fill="url(#gradient-secondary)" opacity="0.8"/>
  <circle cx="580" cy="300" r="12" fill="url(#gradient-accent)" opacity="0.8"/>
  
  <!-- Learning icons -->
  <g transform="translate(590, 190)">
    <path d="M8 2L2 6L8 10V2Z" fill="white"/>
  </g>
  
  <g transform="translate(50, 240)">
    <path d="M12 2L2 7L12 12V2Z" fill="white"/>
  </g>
  
  <g transform="translate(570, 290)">
    <path d="M6 1L1 4L6 7V1Z" fill="white"/>
  </g>
</svg>
